<svg id="Слой_1" data-name="Слой 1" xmlns="http://www.w3.org/2000/svg" viewBox="0 0 283.46 283.46"><defs><style>.cls-1,.cls-4{fill:#0c262a;}.cls-1,.cls-3{opacity:0.9;}.cls-2{fill:#fff;}</style></defs><path class="cls-1" d="M141.77,283.38C53.18,283.38-16.42,202.09,3.51,110,13.88,62.12,62.2,13.8,110.11,3.43,202.17-16.5,283.46,53.1,283.46,141.69A141.68,141.68,0,0,1,141.77,283.38"/><path class="cls-2" d="M47.49,100.31l.88-2.19L30.76,91l-4.33,10.73L44,108.85l.88-2.18,1.4.56-2.57,6.36-1.4-.57.89-2.18-17.62-7.12-1,2.42L23,105.46l7.89-19.54,1.69.69-1,2.42,17.61,7.11L50.06,94l1.4.56-2.57,6.36Z"/><path class="cls-2" d="M40.31,73.64l-1.44-1.12,5.22-6.72A20.85,20.85,0,0,1,46.71,63a7,7,0,0,1,2.5-1.48,4.51,4.51,0,0,1,2.55,0A8.23,8.23,0,0,1,54.55,63l.29.23A7.51,7.51,0,0,1,57,65.57a4.73,4.73,0,0,1,.58,2.53,7.21,7.21,0,0,1-.79,2.78,18.46,18.46,0,0,1-2,3.13l-2.35,3L58,81.35l1.45-1.86,1.44,1.12-4.22,5.44L55.2,84.93,56.66,83,41.91,71.58Zm13.1-8.86A6.39,6.39,0,0,0,51,63.51a3.39,3.39,0,0,0-2,.14,5,5,0,0,0-1.74,1.22,23.75,23.75,0,0,0-1.69,2l-2.37,3L51,76l2.36-3a16.19,16.19,0,0,0,1.44-2.16,5.3,5.3,0,0,0,.67-2.05,3.67,3.67,0,0,0-.37-2A5.66,5.66,0,0,0,53.41,64.78Z"/><path class="cls-2" d="M66.58,43.1a13.81,13.81,0,0,1,2.8-1.67,6.58,6.58,0,0,1,3.09-.55,7.47,7.47,0,0,1,3.36,1.19,14.38,14.38,0,0,1,3.64,3.57l2,2.55a14.94,14.94,0,0,1,2.5,4.45,7.43,7.43,0,0,1,.31,3.55,6.29,6.29,0,0,1-1.31,2.86,14.34,14.34,0,0,1-2.4,2.33,14.15,14.15,0,0,1-2.89,1.71,6.46,6.46,0,0,1-3.1.5,7.48,7.48,0,0,1-3.35-1.26,15.12,15.12,0,0,1-3.62-3.58L65.62,56.2a14.08,14.08,0,0,1-2.46-4.45,7.37,7.37,0,0,1-.26-3.55,6.36,6.36,0,0,1,1.33-2.84A13.62,13.62,0,0,1,66.58,43.1Zm1.11,1.44a10.15,10.15,0,0,0-1.84,1.8,4.37,4.37,0,0,0-.91,2.23,6.26,6.26,0,0,0,.44,2.86,14.87,14.87,0,0,0,2.18,3.69l1.85,2.42a13,13,0,0,0,2.87,2.91,5.88,5.88,0,0,0,2.6,1.08,4.5,4.5,0,0,0,2.36-.33,9.83,9.83,0,0,0,2.17-1.27,10.33,10.33,0,0,0,1.8-1.75A4.54,4.54,0,0,0,82.13,56a5.9,5.9,0,0,0-.35-2.79,13.11,13.11,0,0,0-2-3.54l-1.85-2.42a14.78,14.78,0,0,0-3-3.09A6.34,6.34,0,0,0,72.27,43a4.46,4.46,0,0,0-2.38.28A9.9,9.9,0,0,0,67.69,44.54Z"/><path class="cls-2" d="M94.85,38.26l9.28-3.81c-.09-.17-.17-.34-.25-.51s-.13-.34-.2-.49a11.17,11.17,0,0,0-2.09-3.52,5.39,5.39,0,0,0-2.32-1.51,4.91,4.91,0,0,0-2.44-.1,13.3,13.3,0,0,0-2.4.73,13.71,13.71,0,0,0-2.16,1.16,16,16,0,0,0-2.11,1.61c.2.49.4,1,.58,1.41s.37.94.55,1.43l-1.54.63-.93-2.13L87.92,31c.35-.26.7-.54,1-.85a3.35,3.35,0,0,1,1-.65,25,25,0,0,1,2.17-1.35c.63-.34,1.2-.61,1.7-.82a14.09,14.09,0,0,1,3.76-1,6.4,6.4,0,0,1,3.27.42A7.34,7.34,0,0,1,103.64,29a17.66,17.66,0,0,1,2.46,4.4l1.17,2.85a13.73,13.73,0,0,1,1.19,4.84,7.2,7.2,0,0,1-.7,3.47,6.68,6.68,0,0,1-2.08,2.41,15.09,15.09,0,0,1-3,1.62,14.92,14.92,0,0,1-4.2,1.14c-1.26.12-2.36.18-3.31.18a.54.54,0,0,0-.22,0,.54.54,0,0,1-.22,0l0-1.75,1.42,0c.52,0,1.09-.08,1.7-.16s1.26-.2,2-.36a13.47,13.47,0,0,0,2.16-.7,10.43,10.43,0,0,0,2.49-1.41,4.22,4.22,0,0,0,1.42-2.05,6.56,6.56,0,0,0,.17-3,18.9,18.9,0,0,0-1.29-4.29L95.54,40Z"/><path class="cls-2" d="M122.8,21.38l1.67,12.94a11.11,11.11,0,0,1-.06,3.92,5.26,5.26,0,0,1-1.22,2.44A5,5,0,0,1,121.05,42a15,15,0,0,1-2.77.61l-.23-1.75a11.46,11.46,0,0,0,2-.42,3.14,3.14,0,0,0,1.5-.93,3.81,3.81,0,0,0,.79-1.85,10.79,10.79,0,0,0,0-3.15l-1.66-12.88-2.56.33-.23-1.81,20.27-2.61.24,1.81-2.59.33,2.39,18.56,2.59-.33L141,39.7l-7.05.91-.18-1.37,2.34-.3-2.44-19Z"/><path class="cls-2" d="M153.36,20.21l.3-1.8L169.52,21l-.73,4.41-1.8-.3.43-2.61L158,21l-1.33,8.1,8,1.31-.29,1.8-8-1.31L155,39.41l9.9,1.63.43-2.61,1.8.3-.73,4.4-16.1-2.64.29-1.8,2.3.37,3-18.43Z"/><path class="cls-2" d="M202.78,33.83,202,35.49l-2.17-1-.59.23c-.2.08-.47.19-.82.35l-1.31.58-2,1-3,1.44-4.27,2,3.54,9.34a12.93,12.93,0,0,0,.74,1.69,7,7,0,0,0,.76,1.19l.71.88-1,.87-.23-.1a3.65,3.65,0,0,1-1.31-1,9,9,0,0,1-.88-1.3,12.71,12.71,0,0,1-.94-2.06l-4.73-12.66-3.06,6.59a20.42,20.42,0,0,1-1,1.84,13.41,13.41,0,0,1-.87,1.26,6,6,0,0,1-.75.8,2.82,2.82,0,0,1-.61.41l-1.46-.89.82-1.08a11.2,11.2,0,0,0,.74-1.11c.26-.43.51-.93.77-1.48l7-15.12-2.65-1.23.76-1.65,4.6,2.13-3.16,6.79,1.4,4,12.39-5.86Z"/><path class="cls-2" d="M212.76,47.18,211.43,46l3.62-4.19,14.76,12.74-3.62,4.19-1.36-1.17,2.43-2.81L222,50.25,209.79,64.38,212,66.25l-1.19,1.38-5.95-5.13L206,61.12,208.17,63l12.21-14.14-5.19-4.48Z"/><path class="cls-2" d="M237.8,66.55l1.51-1,4.77,7A21.07,21.07,0,0,1,246,76a7.11,7.11,0,0,1,.63,2.83,4.56,4.56,0,0,1-.77,2.43,8.25,8.25,0,0,1-2.3,2.19l-.31.21a7.87,7.87,0,0,1-2.92,1.29,4.82,4.82,0,0,1-2.59-.23,7.31,7.31,0,0,1-2.41-1.62A18.17,18.17,0,0,1,233,80.17L230.82,77,225,81l1.32,2-1.51,1-3.86-5.71,1.51-1,1.34,2,15.47-10.47Zm4.36,15.2a6.3,6.3,0,0,0,2-1.89,3.39,3.39,0,0,0,.48-1.92,5,5,0,0,0-.61-2c-.38-.69-.83-1.43-1.36-2.22l-2.16-3.2L232.28,76l2.15,3.17a16.45,16.45,0,0,0,1.61,2,5.35,5.35,0,0,0,1.74,1.27,3.63,3.63,0,0,0,2,.26A5.6,5.6,0,0,0,242.16,81.75Z"/><path class="cls-2" d="M258.66,101a13.7,13.7,0,0,1,.7,3.19,6.39,6.39,0,0,1-.44,3.09,7.29,7.29,0,0,1-2.18,2.83,14.62,14.62,0,0,1-4.53,2.35l-3,1a15,15,0,0,1-5,1,7.32,7.32,0,0,1-3.47-.81,6.24,6.24,0,0,1-2.31-2.14,13.76,13.76,0,0,1-1.46-3,14.12,14.12,0,0,1-.72-3.28,6.32,6.32,0,0,1,.49-3.1A7.41,7.41,0,0,1,239,99.38a15.34,15.34,0,0,1,4.53-2.32l3-1a14.13,14.13,0,0,1,5-1,7.44,7.44,0,0,1,3.47.86,6.43,6.43,0,0,1,2.27,2.16A13.46,13.46,0,0,1,258.66,101Zm-1.72.6a10.05,10.05,0,0,0-1.13-2.3A4.4,4.4,0,0,0,254,97.75a6.27,6.27,0,0,0-2.85-.47,14.65,14.65,0,0,0-4.19.92l-2.88,1a13.36,13.36,0,0,0-3.66,1.82,5.88,5.88,0,0,0-1.83,2.14,4.43,4.43,0,0,0-.43,2.34,10.53,10.53,0,0,0,.53,2.46,10.23,10.23,0,0,0,1.1,2.25,4.49,4.49,0,0,0,1.78,1.56,5.94,5.94,0,0,0,2.76.55,13.62,13.62,0,0,0,4-.84l2.87-1A14.61,14.61,0,0,0,255,108.6a6.22,6.22,0,0,0,2-2.14,4.39,4.39,0,0,0,.48-2.35A10,10,0,0,0,256.94,101.62Z"/><path class="cls-2" d="M141.62,276.44C67.31,276.44,6.87,216,6.87,141.69S67.31,6.94,141.62,6.94,276.37,67.39,276.37,141.69,215.92,276.44,141.62,276.44Zm0-264.49C70.08,12,11.87,70.15,11.87,141.69S70.08,271.43,141.62,271.43a129.74,129.74,0,0,0,0-259.48Z"/><path class="cls-2" d="M141.62,237.16a95.47,95.47,0,1,1,95.46-95.47A95.58,95.58,0,0,1,141.62,237.16Zm0-188.93a93.46,93.46,0,1,0,93.45,93.46A93.57,93.57,0,0,0,141.62,48.23Z"/><path class="cls-2" d="M31.17,146.34l.29,4.81.27,0H32a5.64,5.64,0,0,0,1.92-.4,2.85,2.85,0,0,0,1.06-.82,2.43,2.43,0,0,0,.42-1.1,6,6,0,0,0,0-1.2,6.19,6.19,0,0,0-.19-1.16,7.27,7.27,0,0,0-.4-1.22l-.73,0-.73,0,0-.8,1.11-.09,1.12-.07c.06.19.14.4.22.6a1.71,1.71,0,0,1,.15.54,9.59,9.59,0,0,1,.27,1.19,8.92,8.92,0,0,1,.11.91,6.88,6.88,0,0,1-.12,1.86,2.93,2.93,0,0,1-.7,1.42,3.52,3.52,0,0,1-1.46.94,8.53,8.53,0,0,1-2.38.43l-1.48.08a6.61,6.61,0,0,1-2.39-.21,3.52,3.52,0,0,1-1.47-.86,3.09,3.09,0,0,1-.76-1.33,7,7,0,0,1-.28-1.59,7.16,7.16,0,0,1,.14-2.09,15.84,15.84,0,0,1,.43-1.53.42.42,0,0,0,0-.1.17.17,0,0,1,0-.1l.79.28-.2.66c-.07.24-.13.51-.19.8a8.13,8.13,0,0,0-.14.94,5.56,5.56,0,0,0,0,1.09,4.84,4.84,0,0,0,.25,1.35,2.07,2.07,0,0,0,.71,1,3.2,3.2,0,0,0,1.33.54,8.45,8.45,0,0,0,2.15.08l-.28-4.81Z"/><path class="cls-2" d="M36.63,159.86l-6.15,1.22a5.18,5.18,0,0,1-1.88.09,2.52,2.52,0,0,1-1.21-.5,2.44,2.44,0,0,1-.71-1,7,7,0,0,1-.38-1.32l.83-.16a6.6,6.6,0,0,0,.26,1,1.55,1.55,0,0,0,.5.69,1.82,1.82,0,0,0,.91.32,4.71,4.71,0,0,0,1.51-.12l6.13-1.21-.25-1.22.86-.16L39,167.1l-.86.17L37.86,166,29,167.79l.24,1.23-.85.16-.66-3.35.65-.13.22,1.12,9-1.79Z"/><path class="cls-2" d="M39.55,172.34l.83-.28,2.5,7.31-2,.69-.29-.83,1.2-.41-1.48-4.33-3.73,1.27,1.26,3.68-.83.28-1.26-3.67-3.93,1.34L33.35,182l1.2-.41.28.83-2,.7-2.54-7.42.83-.29.37,1.06L40,173.51Z"/><path class="cls-2" d="M49.14,193l-.79.39-.5-1-.29-.09-.42-.12-.66-.17-1-.26-1.57-.37-2.21-.53-1.48,4.56a6,6,0,0,0-.24.86,3.63,3.63,0,0,0-.07.67v.55h-.65l-.05-.11a1.8,1.8,0,0,1-.11-.28,2.06,2.06,0,0,1-.07-.5,4.47,4.47,0,0,1,.06-.75,5.42,5.42,0,0,1,.27-1l2-6.17-3.13,1.54a9.43,9.43,0,0,1-.91.41c-.27.09-.5.16-.7.21a3,3,0,0,1-.52.07,1.73,1.73,0,0,1-.36,0l-.28-.77.63-.16.62-.19c.22-.09.47-.19.73-.32l7.18-3.55L44,184.52l.79-.39,1.07,2.18-3.22,1.59-.69,1.93,6.41,1.54Z"/><path class="cls-2" d="M49.85,199.32l-.48-.71,2.21-1.49,5.25,7.76-2.21,1.49-.48-.71,1.48-1-1.87-2.76-7.44,5,.77,1.14-.72.49-2.12-3.13.72-.49.77,1.14,7.44-5-1.85-2.72Z"/><path class="cls-2" d="M59.16,209.25l.65-.58,2.71,3.06a9.18,9.18,0,0,1,1.12,1.49,3.21,3.21,0,0,1,.47,1.31,2.13,2.13,0,0,1-.21,1.21,4.08,4.08,0,0,1-1,1.18l-.14.12a3.67,3.67,0,0,1-1.31.8,2.32,2.32,0,0,1-1.25,0,3.52,3.52,0,0,1-1.24-.62A9.68,9.68,0,0,1,57.7,216l-1.22-1.38L54,216.91l.75.84-.66.58-2.19-2.47.65-.58.76.86L60,210.19Zm3,7a2.91,2.91,0,0,0,.81-1,1.66,1.66,0,0,0,.11-.95,2.4,2.4,0,0,0-.42-.93,11.84,11.84,0,0,0-.78-1L60.67,211l-3.55,3.14,1.22,1.38a8.16,8.16,0,0,0,.89.88,2.66,2.66,0,0,0,.91.5,1.78,1.78,0,0,0,1,0A2.88,2.88,0,0,0,62.18,216.22Z"/><path class="cls-2" d="M72.06,221a6.41,6.41,0,0,1,1,1.16,3.1,3.1,0,0,1,.55,1.4,3.5,3.5,0,0,1-.24,1.69,6.87,6.87,0,0,1-1.33,2.06l-1,1.16a6.93,6.93,0,0,1-1.85,1.6,3.56,3.56,0,0,1-1.64.49,3,3,0,0,1-1.48-.35,6.72,6.72,0,0,1-2.4-2.1,3.05,3.05,0,0,1-.54-1.41,3.7,3.7,0,0,1,.28-1.7,7.1,7.1,0,0,1,1.33-2l1-1.16a7,7,0,0,1,1.86-1.59,3.5,3.5,0,0,1,1.65-.46,3,3,0,0,1,1.47.36A6.76,6.76,0,0,1,72.06,221Zm-.58.65a5.39,5.39,0,0,0-1-.69,2,2,0,0,0-1.14-.21,2.89,2.89,0,0,0-1.3.48,6.81,6.81,0,0,0-1.54,1.38l-1,1.1a6.47,6.47,0,0,0-1.1,1.63,2.92,2.92,0,0,0-.25,1.33,2.07,2.07,0,0,0,.38,1.08,4.85,4.85,0,0,0,.81.9,4.59,4.59,0,0,0,1,.68,2.09,2.09,0,0,0,1.11.22,2.81,2.81,0,0,0,1.29-.43,6.33,6.33,0,0,0,1.47-1.3l1-1.1a6.84,6.84,0,0,0,1.17-1.7,3,3,0,0,0,.3-1.36,2.08,2.08,0,0,0-.36-1.09A4.61,4.61,0,0,0,71.48,221.65Z"/><path class="cls-2" d="M73.25,236.05l.47-.73,1,.61,2.54-3.71c.82-1.2,1.67-2.44,2.54-3.69l-1-.68.47-.74,2.21,1.42-1.24,8.37,3.63-2.24c1.21-.75,2.42-1.5,3.62-2.26l2.19,1.41-.48.74-1-.68-2.32,3.84q-1.16,1.88-2.34,3.84l1,.61-.47.74-2.76-1.78.48-.74,1,.62,4.31-7.11-3.56,2.18-3.57,2.18-.62-.4,1.15-8.25c-.81,1.17-1.6,2.31-2.36,3.44s-1.55,2.28-2.35,3.45l.95.61-.47.74Z"/><path class="cls-2" d="M98,237.71a6.73,6.73,0,0,1,1.34.81,3.06,3.06,0,0,1,.93,1.18,3.45,3.45,0,0,1,.26,1.69,6.94,6.94,0,0,1-.68,2.36l-.63,1.4a7.18,7.18,0,0,1-1.32,2.07,3.61,3.61,0,0,1-1.43.95,3.21,3.21,0,0,1-1.51.09,6.65,6.65,0,0,1-1.53-.49,6.24,6.24,0,0,1-1.38-.83,3.1,3.1,0,0,1-.92-1.2A3.65,3.65,0,0,1,90.9,244a7.13,7.13,0,0,1,.69-2.34l.64-1.4a6.91,6.91,0,0,1,1.32-2.06,3.69,3.69,0,0,1,1.45-.92,3.17,3.17,0,0,1,1.5-.08A6.89,6.89,0,0,1,98,237.71Zm-.37.8a4.8,4.8,0,0,0-1.17-.37,2,2,0,0,0-1.15.13,2.83,2.83,0,0,0-1.11.83,7,7,0,0,0-1.07,1.77l-.61,1.33a6.45,6.45,0,0,0-.58,1.88,3,3,0,0,0,.14,1.34,2.25,2.25,0,0,0,.68.93,5.24,5.24,0,0,0,2.18,1,2.2,2.2,0,0,0,1.13-.11,2.87,2.87,0,0,0,1.1-.78,6.1,6.1,0,0,0,1-1.67l.6-1.33a7.2,7.2,0,0,0,.63-2,3.1,3.1,0,0,0-.1-1.39,2.18,2.18,0,0,0-.66-.94A4.52,4.52,0,0,0,97.63,238.51Z"/><path class="cls-2" d="M112.6,244.17l.25-.84,3.4,1-.25.84-1.22-.37-2.57,8.6,1.21.37-.25.84-3.4-1,.25-.84,1.2.36,1.2-4L107,247.5l-1.2,4,1.21.36-.25.84-3.4-1,.25-.84,1.2.36,2.58-8.6-1.2-.36.25-.84,3.4,1-.25.84-1.22-.36-1.12,3.75,5.38,1.61,1.13-3.75Z"/><path class="cls-2" d="M121.41,248.15l-.83-.13.4-2.63,9.26,1.43-.4,2.63-.85-.13.27-1.77L126,247l-1.37,8.88,1.36.21-.14.86-3.73-.57.13-.87,1.36.21,1.37-8.87-3.25-.51Z"/><path class="cls-2" d="M134.29,258l0-.87,1.23,0,3.17-8.92-.69,0v-.87l2.47,0,3.11,9.91,1.24,0v.87l-2.06,0-1-3.12-4.37-.08-.54,1.55c-.18.51-.36,1-.55,1.53Zm3.43-3.91,3.83.07-1.81-5.9Z"/><path class="cls-2" d="M163.76,245.24l.12.87-1.13.16-.18.26-.24.36-.38.59c-.16.24-.35.55-.59.93l-.85,1.38c-.33.54-.72,1.18-1.19,1.93l3.9,2.79a6.27,6.27,0,0,0,.74.49,3.55,3.55,0,0,0,.62.28l.51.17-.18.62-.12,0a1.47,1.47,0,0,1-.3,0,2.36,2.36,0,0,1-.49-.1,3.69,3.69,0,0,1-.71-.28,7,7,0,0,1-.91-.58l-4.71-3.35.6,4.2,1.39-.2.12.87-3.8.54-.12-.87,1.39-.19-.6-4.21-3.58,4.54a6.89,6.89,0,0,1-.72.81,4.8,4.8,0,0,1-.59.47,2.4,2.4,0,0,1-.45.23,1.17,1.17,0,0,1-.29.08l-.12,0-.35-.55.45-.3a3.67,3.67,0,0,0,.51-.44,7,7,0,0,0,.58-.68l3-3.77-1.69-1.52-1.2-1.09-.82-.73-.53-.46-.34-.28a2.33,2.33,0,0,1-.23-.19l-1.14.16-.12-.87,1.76-.25,4.95,4.5.76-1.08-.47-3.28-1.39.2-.12-.87,3.8-.54.12.86-1.39.2.47,3.28,1,.83,3.49-5.71Z"/><path class="cls-2" d="M174.87,242.87l-.26-.83L178,241l.26.84-1.21.38,2.69,8.56,1.21-.38.26.84-3.39,1.06-.26-.83,1.2-.38-1.26-4-5.36,1.68,1.25,4,1.22-.38.26.83-3.39,1.07-.26-.84,1.19-.38-2.69-8.56-1.19.37-.27-.83,3.39-1.07.27.84-1.22.38,1.18,3.74,5.36-1.69-1.17-3.73Z"/><path class="cls-2" d="M188.75,241.43a12.41,12.41,0,0,1,1.49-.62,3.56,3.56,0,0,1,1.41-.21,2.46,2.46,0,0,1,1.26.46,3.47,3.47,0,0,1,1.06,1.37,3,3,0,0,1,.36,1.38,2.41,2.41,0,0,1-.29,1.11,2.8,2.8,0,0,1-.77.88,5.68,5.68,0,0,1-1.05.67l-4.75,2.33-.39-.79,1-.5-4-8.06L183,240l-.39-.79,3.19-1.57.39.79-1.12.55,1.68,3.42Zm-1.61,1.77,1.9,3.85,2.72-1.34a3.63,3.63,0,0,0,.81-.52,2.14,2.14,0,0,0,.52-.66,1.59,1.59,0,0,0,.16-.82,2.41,2.41,0,0,0-.28-1,2.24,2.24,0,0,0-.68-.87,1.72,1.72,0,0,0-.83-.31,2.32,2.32,0,0,0-.9.09,7.74,7.74,0,0,0-.94.35Zm4.13-7.25-.39-.79,3.19-1.57.39.79-1.13.55,4,8.06,1.12-.55.39.78-3.19,1.57-.39-.78,1.14-.57-4-8.05Z"/><path class="cls-2" d="M198.77,231.66l-.5-.72,6.36-4.38,1.22,1.77-.72.5-.72-1.05-3.78,2.59,2.24,3.26,3.2-2.2.49.72-3.2,2.2,2.36,3.43,4-2.73L209,234l.72-.5,1.22,1.77-6.47,4.44L204,239l.92-.63-5.08-7.4Z"/><path class="cls-2" d="M215.37,218.65l-.63-.61,2.84-2.94a10.43,10.43,0,0,1,1.4-1.23,3.38,3.38,0,0,1,1.27-.57,2.13,2.13,0,0,1,1.22.12,3.75,3.75,0,0,1,1.25.86l.13.13a3.59,3.59,0,0,1,.9,1.25,2.22,2.22,0,0,1,.15,1.24,3.61,3.61,0,0,1-.52,1.29,9.74,9.74,0,0,1-1.12,1.39L221,220.9l2.43,2.35.79-.81.63.6-2.3,2.38-.63-.6.8-.83-6.46-6.24Zm6.72-3.55a3.09,3.09,0,0,0-1.09-.73,1.63,1.63,0,0,0-.95,0,2.39,2.39,0,0,0-.89.49,10.1,10.1,0,0,0-.91.86L217,217l3.41,3.3,1.28-1.33a6.78,6.78,0,0,0,.8-1,2.56,2.56,0,0,0,.43-.94,1.81,1.81,0,0,0-.08-1A2.72,2.72,0,0,0,222.09,215.1Z"/><path class="cls-2" d="M232,215.18l-.71-.52.74-1-5.44-7.75-.41.56-.7-.52,1.46-2,9.88,3.21.74-1,.7.52L237,208.35l-3.11-1-2.59,3.51.94,1.34c.31.44.63.88.94,1.33Zm-1.21-5.06,2.28-3.09-5.85-1.94Z"/><path class="cls-2" d="M232,196.45l3.78-6.88,2,1.09-.39.7-.59-.33c-.23-.12-.45-.22-.65-.3l-2.28,4.14,3.34,1.84,1.07-2a13.09,13.09,0,0,1,.83-1.3,4.35,4.35,0,0,1,1-1,2.46,2.46,0,0,1,1.24-.43,2.86,2.86,0,0,1,1.53.42l.11.06a3.33,3.33,0,0,1,1.15,1,2.4,2.4,0,0,1,.45,1.09,2.77,2.77,0,0,1-.1,1.17,6,6,0,0,1-.49,1.18l-2.54,4.62-.77-.42.55-1-7.87-4.33-.61,1.1Zm7.31-1.75c-.07.1-.14.22-.21.34s-.15.25-.24.41l-.92,1.67,3.79,2.08,1.46-2.65a3.38,3.38,0,0,0,.35-.87,2,2,0,0,0,.06-.84,1.72,1.72,0,0,0-.32-.77,2.21,2.21,0,0,0-.79-.66,2.36,2.36,0,0,0-1.07-.34,1.79,1.79,0,0,0-.86.2,2.76,2.76,0,0,0-.69.6A8,8,0,0,0,239.35,194.7Z"/><path class="cls-2" d="M239.76,180.28a7.61,7.61,0,0,1,.74-1.38,3.26,3.26,0,0,1,1.13-1,3.6,3.6,0,0,1,1.68-.35,6.93,6.93,0,0,1,2.39.56l1.43.56a7.36,7.36,0,0,1,2.14,1.21,3.6,3.6,0,0,1,1,1.38,3.1,3.1,0,0,1,.17,1.51,6.81,6.81,0,0,1-.4,1.55,6.88,6.88,0,0,1-.77,1.42,3,3,0,0,1-1.15,1,3.5,3.5,0,0,1-1.69.31,7,7,0,0,1-2.37-.56l-1.44-.57a6.88,6.88,0,0,1-2.12-1.21,3.77,3.77,0,0,1-1-1.4,3.07,3.07,0,0,1-.16-1.5A7,7,0,0,1,239.76,180.28Zm.82.33a4.87,4.87,0,0,0-.31,1.19,2.06,2.06,0,0,0,.18,1.14,3.08,3.08,0,0,0,.89,1.07,7.37,7.37,0,0,0,1.82,1l1.36.54a6.55,6.55,0,0,0,1.91.48,2.74,2.74,0,0,0,1.33-.21,2.12,2.12,0,0,0,.9-.72,5.33,5.33,0,0,0,.57-1.06,5.17,5.17,0,0,0,.3-1.17,2.08,2.08,0,0,0-.16-1.12,2.89,2.89,0,0,0-.84-1.06,6,6,0,0,0-1.72-.95l-1.36-.53a7.11,7.11,0,0,0-2-.53,3.12,3.12,0,0,0-1.38.17,2.19,2.19,0,0,0-.91.71A4.61,4.61,0,0,0,240.58,180.61Z"/><path class="cls-2" d="M245.74,171.63l-.2.82L243,171.8l2.28-9.09,2.58.65-.21.83-1.73-.43-.81,3.24,8.7,2.18.34-1.33.85.21-.92,3.67-.85-.22.33-1.33L244.81,168l-.8,3.19Z"/><path class="cls-2" d="M251.26,154.06a12.76,12.76,0,0,1,.25-1.6,3.54,3.54,0,0,1,.56-1.31,2.48,2.48,0,0,1,1.05-.83,3.58,3.58,0,0,1,1.74-.18,2.83,2.83,0,0,1,1.35.42,2.34,2.34,0,0,1,.79.84,2.73,2.73,0,0,1,.35,1.11,5.71,5.71,0,0,1,0,1.24l-.51,5.27-.87-.09.11-1.14-8.94-.86-.12,1.28-.87-.09.34-3.54.87.09-.12,1.23,3.79.37Zm-3.34-5-.88-.09.35-3.53.87.08-.12,1.25,8.93.87.12-1.25.88.08-.34,3.54-.88-.09.12-1.26-8.93-.87Zm4,7.32,4.27.42.29-3a3.72,3.72,0,0,0,0-1,2.07,2.07,0,0,0-.29-.8,1.6,1.6,0,0,0-.61-.57,2.47,2.47,0,0,0-1-.27,2.11,2.11,0,0,0-1.1.12,1.64,1.64,0,0,0-.7.54,2.33,2.33,0,0,0-.4.82,7.24,7.24,0,0,0-.19,1Z"/><polygon class="cls-2" points="29.39 121.2 32.28 125.03 37.07 124.83 34.32 128.76 35.99 133.25 31.4 131.85 27.64 134.83 27.57 130.03 23.57 127.38 28.11 125.82 29.39 121.2"/><polygon class="cls-2" points="255.74 123.42 256.66 128.13 261.07 130.03 256.88 132.37 256.43 137.14 252.91 133.88 248.23 134.93 250.24 130.57 247.8 126.44 252.56 127.02 255.74 123.42"/><path class="cls-2" d="M144.4,213.43a71.79,71.79,0,0,1-9.47-143.22l1.55-.13-.87,2h0A69.83,69.83,0,1,0,166,76.16l.7-1.75a71.8,71.8,0,0,1-22.3,139Z"/><path class="cls-2" d="M173.73,60.4a88.88,88.88,0,0,1,39.5,31.22,87.38,87.38,0,1,1-159,50.07c0-48.18,39.55-87.37,87.73-87.37l-3.35,9.5c-1.19,0,1.18,0,0,0-41.33,1.86-74.94,36.09-74.94,77.87a77.94,77.94,0,1,0,105.79-72.8"/><polygon class="cls-2" points="173.96 52.58 139.48 118.03 131.48 105.37 163.59 107.03 176.58 107.71 169.76 117.91 138.78 164.26 135.23 157.7 163.66 160.09 168.44 160.5 166.33 164.46 140.32 213.36 160.75 161.88 163.42 166.24 134.89 166.37 127.85 166.4 131.33 159.81 157.41 110.54 163.59 121.42 131.48 123.09 117.78 123.8 123.48 110.42 150.41 47.23 173.96 52.58"/><g class="cls-3"><path class="cls-4" d="M80,89.82a1.67,1.67,0,0,1-1.05.6A1.6,1.6,0,0,1,77.25,89a1.63,1.63,0,0,1,.4-1.14,1.61,1.61,0,0,1,1-.59,1.62,1.62,0,0,1,1.74,1.47A1.6,1.6,0,0,1,80,89.82Z"/><path class="cls-4" d="M95.51,75.64a1.65,1.65,0,0,1-1.16.32,1.45,1.45,0,0,1-1-.68A1.41,1.41,0,0,1,93,74.09a1.71,1.71,0,0,1,1.85-1.3,1.49,1.49,0,0,1,1,.66,1.45,1.45,0,0,1,.28,1.21A1.6,1.6,0,0,1,95.51,75.64Z"/><path class="cls-4" d="M114.12,65.93a1.68,1.68,0,0,1-1.21,0,1.63,1.63,0,0,1-.78-2.14,1.67,1.67,0,0,1,.92-.79,1.6,1.6,0,0,1,1.2,0,1.44,1.44,0,0,1,.82.9,1.48,1.48,0,0,1,0,1.24A1.62,1.62,0,0,1,114.12,65.93Z"/><path class="cls-4" d="M134.64,61.37a1.65,1.65,0,0,1-1.17-.31A1.51,1.51,0,0,1,132.9,60a1.47,1.47,0,0,1,.37-1.16,1.66,1.66,0,0,1,1.1-.52,1.6,1.6,0,0,1,1.15.32,1.44,1.44,0,0,1,.56,1.08,1.42,1.42,0,0,1-.36,1.19A1.62,1.62,0,0,1,134.64,61.37Z"/><path class="cls-4" d="M175,68.21a1.7,1.7,0,0,1-.86-.85,1.43,1.43,0,0,1,.05-1.24,1.44,1.44,0,0,1,.89-.84,1.65,1.65,0,0,1,1.21.09,1.61,1.61,0,0,1,.85.85,1.43,1.43,0,0,1,0,1.21,1.45,1.45,0,0,1-.89.86A1.62,1.62,0,0,1,175,68.21Z"/><path class="cls-4" d="M192.83,79.28a1.65,1.65,0,0,1-.62-1,1.46,1.46,0,0,1,.37-1.19,1.42,1.42,0,0,1,1.07-.57,1.71,1.71,0,0,1,1.75,1.43,1.46,1.46,0,0,1-.35,1.16,1.48,1.48,0,0,1-1.09.6A1.61,1.61,0,0,1,192.83,79.28Z"/><path class="cls-4" d="M207.22,94.59a1.64,1.64,0,0,1-.32-1.16,1.46,1.46,0,0,1,.66-1.06,1.43,1.43,0,0,1,1.18-.27,1.62,1.62,0,0,1,1,.67,1.65,1.65,0,0,1,.32,1.16,1.65,1.65,0,0,1-1.85,1.33A1.63,1.63,0,0,1,207.22,94.59Z"/><path class="cls-4" d="M217.17,113.06a1.63,1.63,0,0,1,0-1.21,1.61,1.61,0,0,1,2.12-.81,1.73,1.73,0,0,1,.81,2.12,1.63,1.63,0,0,1-2.13.8A1.6,1.6,0,0,1,217.17,113.06Z"/><path class="cls-4" d="M222,133.48a1.6,1.6,0,0,1,.3-1.17,1.46,1.46,0,0,1,1.1-.59,1.43,1.43,0,0,1,1.16.36,1.57,1.57,0,0,1,.54,1.08,1.65,1.65,0,0,1-.31,1.17,1.48,1.48,0,0,1-1.07.57,1.45,1.45,0,0,1-1.19-.35A1.56,1.56,0,0,1,222,133.48Z"/><path class="cls-4" d="M221.39,154.47a1.73,1.73,0,0,1,.59-1.06,1.49,1.49,0,0,1,1.22-.28,1.43,1.43,0,0,1,1,.64,1.63,1.63,0,0,1,.24,1.19,1.6,1.6,0,0,1-.59,1,1.63,1.63,0,0,1-2.25-.36A1.63,1.63,0,0,1,221.39,154.47Z"/><path class="cls-4" d="M215.41,174.59a1.63,1.63,0,0,1,.84-.87,1.48,1.48,0,0,1,1.25,0,1.46,1.46,0,0,1,.83.89,1.72,1.72,0,0,1-.92,2.06,1.42,1.42,0,0,1-1.22,0,1.45,1.45,0,0,1-.86-.89A1.59,1.59,0,0,1,215.41,174.59Z"/><path class="cls-4" d="M204.41,192.46a1.69,1.69,0,0,1,1-.62,1.49,1.49,0,0,1,1.19.37,1.43,1.43,0,0,1,.58,1.07,1.66,1.66,0,0,1-.39,1.15,1.6,1.6,0,0,1-1,.6,1.44,1.44,0,0,1-1.17-.35,1.47,1.47,0,0,1-.6-1.08A1.64,1.64,0,0,1,204.41,192.46Z"/><path class="cls-4" d="M189.17,206.93a1.63,1.63,0,0,1,1.16-.33,1.46,1.46,0,0,1,1.06.65,1.5,1.5,0,0,1,.28,1.19,1.65,1.65,0,0,1-.67,1,1.59,1.59,0,0,1-1.16.32,1.45,1.45,0,0,1-1-.64,1.49,1.49,0,0,1-.31-1.2A1.63,1.63,0,0,1,189.17,206.93Z"/><path class="cls-4" d="M170.75,217a1.63,1.63,0,0,1,1.21,0,1.46,1.46,0,0,1,.85.9,1.4,1.4,0,0,1,0,1.22,1.63,1.63,0,0,1-.9.81,1.61,1.61,0,0,1-1.2,0,1.62,1.62,0,0,1-.82-2.12A1.63,1.63,0,0,1,170.75,217Z"/><path class="cls-4" d="M150.33,221.87a1.67,1.67,0,0,1,1.18.3,1.6,1.6,0,0,1,.24,2.26,1.61,1.61,0,0,1-1.09.54,1.56,1.56,0,0,1-1.16-.3,1.46,1.46,0,0,1-.58-1.07,1.48,1.48,0,0,1,.34-1.2A1.67,1.67,0,0,1,150.33,221.87Z"/><path class="cls-4" d="M129.34,221.37a1.67,1.67,0,0,1,1.06.58,1.47,1.47,0,0,1,.29,1.21,1.45,1.45,0,0,1-.64,1,1.7,1.7,0,0,1-2.23-.34,1.48,1.48,0,0,1-.29-1.19,1.46,1.46,0,0,1,.64-1.06A1.57,1.57,0,0,1,129.34,221.37Z"/><path class="cls-4" d="M109.19,215.47a1.68,1.68,0,0,1,.87.83,1.48,1.48,0,0,1,0,1.25,1.42,1.42,0,0,1-.89.84,1.61,1.61,0,0,1-1.2-.07,1.56,1.56,0,0,1-.86-.85,1.43,1.43,0,0,1,0-1.21,1.49,1.49,0,0,1,.89-.87A1.62,1.62,0,0,1,109.19,215.47Z"/><path class="cls-4" d="M91.26,204.54a1.67,1.67,0,0,1,.62,1,1.45,1.45,0,0,1-.36,1.19,1.43,1.43,0,0,1-1.07.58A1.6,1.6,0,0,1,89.3,207a1.65,1.65,0,0,1-.61-1,1.65,1.65,0,0,1,1.43-1.77A1.64,1.64,0,0,1,91.26,204.54Z"/><path class="cls-4" d="M76.75,189.38a1.71,1.71,0,0,1,.34,1.16,1.62,1.62,0,0,1-1.84,1.35,1.65,1.65,0,0,1-1-.67,1.62,1.62,0,0,1-.33-1.15,1.47,1.47,0,0,1,.64-1,1.44,1.44,0,0,1,1.2-.31A1.6,1.6,0,0,1,76.75,189.38Z"/><path class="cls-4" d="M66.63,171a1.63,1.63,0,0,1,0,1.21,1.61,1.61,0,0,1-2.12.83,1.67,1.67,0,0,1-.81-.9,1.63,1.63,0,0,1,0-1.21,1.62,1.62,0,0,1,2.12-.82A1.6,1.6,0,0,1,66.63,171Z"/><path class="cls-4" d="M61.63,150.6a1.68,1.68,0,0,1-.29,1.18,1.49,1.49,0,0,1-1.1.59,1.4,1.4,0,0,1-1.16-.35,1.62,1.62,0,0,1-.55-1.08,1.58,1.58,0,0,1,.3-1.16,1.44,1.44,0,0,1,1.07-.58,1.42,1.42,0,0,1,1.19.33A1.63,1.63,0,0,1,61.63,150.6Z"/><path class="cls-4" d="M62,129.61a1.65,1.65,0,0,1-.58,1.06,1.5,1.5,0,0,1-1.21.29,1.44,1.44,0,0,1-1-.63,1.69,1.69,0,0,1-.25-1.19,1.59,1.59,0,0,1,.59-1,1.46,1.46,0,0,1,1.18-.29,1.51,1.51,0,0,1,1.07.63A1.61,1.61,0,0,1,62,129.61Z"/><path class="cls-4" d="M67.85,109.44a1.7,1.7,0,0,1-.83.88,1.52,1.52,0,0,1-1.25,0,1.44,1.44,0,0,1-.84-.89,1.7,1.7,0,0,1,.9-2.07,1.49,1.49,0,0,1,1.22,0,1.47,1.47,0,0,1,.87.89A1.59,1.59,0,0,1,67.85,109.44Z"/></g></svg>